<svg id="图层_1" data-name="图层 1" xmlns="http://www.w3.org/2000/svg" viewBox="0 0 1169.15 371.31"><defs><style>.cls-1{fill:#29abe2;}</style></defs><title>Studio_Logo_2160p</title><path class="cls-1" d="M1003.6,851.78,934,733.75H880.55v118H859V590.25h76.41c52,0,87.18,19,87.18,70,0,41.61-25.47,65.65-65.3,71.75L1028,851.78Zm-123.05-136h49.87c45.2,0,70.31-17.94,70.31-55.61,0-38-25.11-52-70.31-52H880.55Z" transform="translate(-859.03 -566.58)"/><path class="cls-1" d="M1061,566.58h20.81v81.79l-.36,41.62c19.37-19.38,39.1-34.44,65.29-34.44,39.82,0,58.12,24.75,58.12,73.9V851.78h-20.81V732.32c0-39.82-12.56-58.12-42-58.12-22.25,0-38,11.48-60.27,34.44V851.78H1061Z" transform="translate(-859.03 -566.58)"/><path class="cls-1" d="M1232.48,933.93l4.66-17.57a49.41,49.41,0,0,0,15.43,2.87c23,0,38.38-20.81,47.71-48.44l5-16.14-78.2-194.08h22.6l44.48,116.95c6.1,16.5,13.28,36.59,20.09,53.81h1.8c5.74-17.22,11.84-37.31,17.22-53.81l39.1-116.95h21.17L1318.94,874c-11.48,33-30.86,63.86-66,63.86C1245.39,937.88,1237.86,936.45,1232.48,933.93Z" transform="translate(-859.03 -566.58)"/><path class="cls-1" d="M1420.1,823.44V566.58h20.81v259c0,9,3.59,12.92,8.61,12.92a31.93,31.93,0,0,0,6.81-.72l3.23,16.5a42,42,0,0,1-14,2.16C1428.35,856.45,1420.1,845.68,1420.1,823.44Z" transform="translate(-859.03 -566.58)"/><path class="cls-1" d="M1488.62,803.71c0-42.33,37.67-62.42,122-72.11.71-28.34-7.54-57.76-43.77-57.76-25.11,0-47,11.84-60.27,21.89l-9.33-15.07c14.71-10,41.26-25.11,72.47-25.11,45.56,0,61.7,32.64,61.7,75V851.78h-17.57l-2.16-24.39H1611c-19.38,15.78-42.34,29.06-66.73,29.06C1513.38,856.45,1488.62,839.22,1488.62,803.71Zm122,5.38V747c-75.34,8.61-101.17,26.18-101.17,55.6,0,26.19,17.94,36.24,39.1,36.24S1588,828.82,1610.6,809.09Z" transform="translate(-859.03 -566.58)"/><path class="cls-1" d="M1684.14,660.57h17.22l2.51,29.06h.72c19.37-19,39.1-34.08,65.29-34.08,39.82,0,58.12,24.75,58.12,73.9V851.78h-20.81V732.32c0-39.82-12.55-58.12-42-58.12-22.24,0-38,11.48-60.27,34.44V851.78h-20.81Z" transform="translate(-859.03 -566.58)"/><path class="cls-1" d="M1867.1,756.35c0-61.7,39.46-100.8,84.66-100.8,23,0,37.58-2.26,56.24,12.45l-.63-23.58V566.58h20.81v285.2H2011l-2.51-24h-.72c-15.43,15.42-36.59,28.7-61.35,28.7C1898.31,856.45,1867.1,820.57,1867.1,756.35ZM2007.37,808V697.52c-19.37-17.22-35.52-23.68-53.45-23.68-36.6,0-64.58,35.52-64.58,82.51,0,49.51,21.88,81.8,60.63,81.8C1970.42,838.15,1988.36,827.75,2007.37,808Z" transform="translate(-859.03 -566.58)"/><path class="cls-1" d="M1019,690" transform="translate(-859.03 -566.58)"/></svg>