<?xml version="1.0" encoding="iso-8859-1"?>
<!-- Generator: Adobe Illustrator 22.1.0, SVG Export Plug-In . SVG Version: 6.00 Build 0)  -->
<svg version="1.1" id="&#x56FE;&#x5C42;_1" xmlns="http://www.w3.org/2000/svg" xmlns:xlink="http://www.w3.org/1999/xlink" x="0px"
	 y="0px" viewBox="0 0 150.381 49.679" style="enable-background:new 0 0 150.381 49.679;" xml:space="preserve">
<path style="fill:none;" d="M2.88,5.568h6.672c6.048,0,9.408,1.872,9.408,6.96c0,5.04-3.36,7.44-9.408,7.44H2.88V5.568z
	 M22.608,38.159l-9.456-16.032c5.328-0.816,8.736-4.032,8.736-9.6c0-6.816-4.704-9.36-11.664-9.36H0v34.992h2.88V22.368h7.152
	l9.312,15.792H22.608z"/>
<path style="fill:none;" d="M26.015,38.159h2.784V19.008c2.976-3.072,5.088-4.608,8.064-4.608c3.936,0,5.616,2.448,5.616,7.776
	v15.984h2.784V21.792c0-6.576-2.448-9.888-7.776-9.888c-3.504,0-6.144,2.016-8.736,4.608l0.048-5.568V0h-2.784V38.159z"/>
<path style="fill:none;" d="M50.687,49.679c4.704,0,7.296-4.128,8.832-8.544l9.984-28.56h-2.832l-5.232,15.648
	c-0.72,2.208-1.536,4.896-2.304,7.2h-0.24c-0.912-2.304-1.872-4.992-2.688-7.2l-5.952-15.648h-3.024l10.464,25.968l-0.672,2.16
	c-1.248,3.696-3.312,6.48-6.384,6.48c-0.72,0-1.536-0.192-2.064-0.384l-0.624,2.352C48.671,49.487,49.679,49.679,50.687,49.679z"/>
<path style="fill:none;" d="M75.454,38.783c0.912,0,1.392-0.144,1.872-0.288l-0.432-2.208c-0.528,0.096-0.72,0.096-0.912,0.096
	c-0.672,0-1.152-0.528-1.152-1.728V0h-2.784v34.368C72.046,37.343,73.15,38.783,75.454,38.783z"/>
<path style="fill:none;" d="M87.646,38.783c3.264,0,6.336-1.776,8.928-3.888h0.096l0.288,3.264h2.352V21.936
	c0-5.664-2.16-10.032-8.256-10.032c-4.176,0-7.728,2.016-9.696,3.36l1.248,2.016c1.776-1.344,4.704-2.928,8.064-2.928
	c4.848,0,5.952,3.936,5.856,7.728c-11.28,1.296-16.32,3.984-16.32,9.648C80.206,36.479,83.518,38.783,87.646,38.783z M88.222,36.431
	c-2.832,0-5.232-1.344-5.232-4.848c0-3.936,3.456-6.288,13.536-7.44v8.304C93.502,35.087,91.054,36.431,88.222,36.431z"/>
<path style="fill:none;" d="M105.358,38.159h2.784V19.008c2.976-3.072,5.088-4.608,8.064-4.608c3.936,0,5.616,2.448,5.616,7.776
	v15.984h2.784V21.792c0-6.576-2.448-9.888-7.776-9.888c-3.504,0-6.144,2.016-8.736,4.56h-0.096l-0.336-3.888h-2.304V38.159z"/>
<path style="fill:#666666;" d="M139.437,38.783c3.312,0,6.144-1.776,8.208-3.84h0.096l0.336,3.216h2.304V0h-2.784v10.416
	l0.192,4.608c-2.496-1.968-4.56-3.12-7.632-3.12c-6.048,0-11.328,5.232-11.328,13.488C128.829,33.983,133.005,38.783,139.437,38.783
	z M139.917,36.335c-5.184,0-8.112-4.32-8.112-10.944c0-6.288,3.744-11.04,8.64-11.04c2.4,0,4.56,0.864,7.152,3.168v14.784
	C145.053,34.944,142.653,36.335,139.917,36.335z"/>
</svg>
